<svg width="64" height="64" viewBox="0 0 64 64" fill="none" xmlns="http://www.w3.org/2000/svg">
<path d="M27.2929 32.7071L0.707107 59.2929C0.316583 59.6834 0.316582 60.3166 0.707106 60.7071L3.29289 63.2929C3.68342 63.6834 4.31658 63.6834 4.70711 63.2929L31.2929 36.7071C31.6834 36.3166 32.3166 36.3166 32.7071 36.7071L59.2929 63.2929C59.6834 63.6834 60.3166 63.6834 60.7071 63.2929L63.2929 60.7071C63.6834 60.3166 63.6834 59.6834 63.2929 59.2929L36.7071 32.7071C36.3166 32.3166 36.3166 31.6834 36.7071 31.2929L63.2929 4.70711C63.6834 4.31658 63.6834 3.68342 63.2929 3.29289L60.7008 0.700765C60.3127 0.312726 59.6845 0.309897 59.2929 0.694425L32.7007 26.8118C32.3117 27.1939 31.6883 27.1939 31.2993 26.8118L4.70705 0.694424C4.31553 0.309896 3.68727 0.312726 3.29924 0.700764L0.707107 3.29289C0.316583 3.68342 0.316581 4.31658 0.707106 4.70711L27.2929 31.2929C27.6834 31.6834 27.6834 32.3166 27.2929 32.7071Z" fill="#FF0000"/>
</svg>
