<svg width="256" height="256" viewBox="0 0 256 256" fill="none" xmlns="http://www.w3.org/2000/svg">
<g clip-path="url(#clip0_1:2)">
<rect width="256" height="256" fill="white"/>
<circle cx="128" cy="128" r="126" stroke="black" stroke-width="4"/>
<path d="M254.42 128C254.42 156.801 198.692 180.148 128 180.148C57.3076 180.148 1.58026 156.801 1.58026 128" stroke="black" stroke-width="4"/>
<path d="M256.413 127.44C256.388 126.336 255.472 125.461 254.368 125.487C253.263 125.512 252.389 126.428 252.414 127.532L256.413 127.44ZM250.15 118.492C250.631 119.487 251.827 119.903 252.821 119.423C253.816 118.942 254.233 117.747 253.752 116.752L250.15 118.492ZM253.262 115.782C252.746 114.805 251.536 114.431 250.559 114.946C249.582 115.462 249.209 116.672 249.724 117.649L253.262 115.782ZM243.976 109.906C244.744 110.7 246.01 110.722 246.804 109.954C247.598 109.186 247.62 107.92 246.852 107.126L243.976 109.906ZM246.091 106.356C245.307 105.579 244.04 105.585 243.263 106.37C242.486 107.155 242.492 108.421 243.277 109.198L246.091 106.356ZM235.645 102.923C236.552 103.555 237.798 103.331 238.429 102.425C239.061 101.518 238.837 100.272 237.931 99.6406L235.645 102.923ZM237.062 99.0446C236.147 98.4261 234.903 98.6665 234.285 99.5817C233.666 100.497 233.907 101.74 234.822 102.359L237.062 99.0446ZM226.214 97.2698C227.193 97.7797 228.401 97.3986 228.911 96.4188C229.421 95.4389 229.04 94.2313 228.06 93.7214L226.214 97.2698ZM227.122 93.2391C226.137 92.7388 224.933 93.1316 224.433 94.1164C223.932 95.1012 224.325 96.305 225.31 96.8053L227.122 93.2391ZM216.143 92.6402C217.166 93.0565 218.333 92.5646 218.749 91.5415C219.165 90.5184 218.673 89.3515 217.65 88.9352L216.143 92.6402ZM216.693 88.5497C215.667 88.1408 214.504 88.6412 214.095 89.6674C213.686 90.6935 214.186 91.8567 215.212 92.2656L216.693 88.5497ZM205.698 88.843C206.749 89.1837 207.877 88.6082 208.217 87.5575C208.558 86.5068 207.983 85.3788 206.932 85.0381L205.698 88.843ZM205.942 84.7202C204.889 84.3856 203.764 84.9678 203.43 86.0205C203.095 87.0732 203.678 88.1978 204.73 88.5323L205.942 84.7202ZM194.99 85.7329C196.06 86.0099 197.151 85.3676 197.428 84.2983C197.705 83.229 197.063 82.1377 195.993 81.8607L194.99 85.7329ZM194.983 81.6018C193.913 81.3303 192.825 81.9781 192.553 83.0487C192.282 84.1194 192.929 85.2075 194 85.4791L194.983 81.6018ZM184.111 83.2202C185.193 83.4414 186.25 82.7435 186.471 81.6613C186.692 80.5791 185.994 79.5225 184.912 79.3012L184.111 83.2202ZM183.891 79.0948C182.808 78.8784 181.754 79.581 181.538 80.6641C181.321 81.7473 182.024 82.8008 183.107 83.0172L183.891 79.0948ZM173.113 81.2388C174.204 81.4101 175.228 80.6642 175.399 79.573C175.57 78.4818 174.824 77.4584 173.733 77.2872L173.113 81.2388ZM172.706 77.1282C171.614 76.9613 170.594 77.7112 170.427 78.8031C170.26 79.895 171.01 80.9154 172.102 81.0823L172.706 77.1282ZM162.032 79.7413C163.129 79.8665 164.121 79.0783 164.246 77.9809C164.371 76.8834 163.583 75.8923 162.485 75.767L162.032 79.7413ZM161.456 75.6516C160.358 75.5304 159.37 76.3222 159.249 77.4201C159.128 78.518 159.92 79.5062 161.017 79.6274L161.456 75.6516ZM150.891 78.6929C151.993 78.7751 152.952 77.9487 153.035 76.8472C153.117 75.7457 152.29 74.7861 151.189 74.704L150.891 78.6929ZM150.16 74.629C149.058 74.5507 148.102 75.3803 148.023 76.4821C147.945 77.5839 148.775 78.5406 149.876 78.619L150.16 74.629ZM139.71 78.0691C140.814 78.1103 141.742 77.2489 141.784 76.1451C141.825 75.0413 140.963 74.1131 139.86 74.0719L139.71 78.0691ZM138.833 74.0352C137.729 73.9977 136.803 74.8621 136.766 75.966C136.728 77.07 137.593 77.9953 138.697 78.0329L138.833 74.0352ZM128.512 77.8523C129.617 77.854 130.514 76.9601 130.515 75.8555C130.517 74.7509 129.623 73.8541 128.519 73.8523L128.512 77.8523ZM127.481 73.8523C126.377 73.8541 125.483 74.7509 125.485 75.8555C125.486 76.9601 126.383 77.854 127.488 77.8523L127.481 73.8523ZM117.303 78.0329C118.407 77.9953 119.272 77.07 119.234 75.966C119.197 74.8621 118.271 73.9977 117.167 74.0352L117.303 78.0329ZM116.14 74.0719C115.037 74.1131 114.175 75.0413 114.216 76.1451C114.258 77.2489 115.186 78.1103 116.29 78.0691L116.14 74.0719ZM106.124 78.619C107.225 78.5406 108.055 77.5839 107.977 76.4821C107.898 75.3803 106.942 74.5507 105.84 74.629L106.124 78.619ZM104.811 74.704C103.71 74.7862 102.883 75.7457 102.965 76.8472C103.048 77.9487 104.007 78.7751 105.109 78.6929L104.811 74.704ZM94.9825 79.6274C96.0804 79.5062 96.8722 78.518 96.751 77.4201C96.6298 76.3222 95.6416 75.5304 94.5436 75.6516L94.9825 79.6274ZM93.5146 75.767C92.4172 75.8923 91.6291 76.8834 91.7543 77.9809C91.8795 79.0783 92.8707 79.8665 93.9681 79.7413L93.5146 75.767ZM83.898 81.0823C84.9899 80.9154 85.7398 79.895 85.5729 78.8031C85.4061 77.7112 84.3857 76.9613 83.2938 77.1282L83.898 81.0823ZM82.2669 77.2872C81.1757 77.4584 80.4299 78.4818 80.6011 79.573C80.7723 80.6642 81.7957 81.4101 82.8869 81.2389L82.2669 77.2872ZM72.893 83.0173C73.9761 82.8008 74.6787 81.7473 74.4623 80.6641C74.2458 79.581 73.1923 78.8784 72.1091 79.0948L72.893 83.0173ZM71.088 79.3012C70.0058 79.5225 69.3079 80.5791 69.5291 81.6613C69.7503 82.7435 70.807 83.4414 71.8892 83.2202L71.088 79.3012ZM62 85.4791C63.0706 85.2075 63.7184 84.1194 63.4469 83.0487C63.1753 81.9781 62.0872 81.3303 61.0165 81.6018L62 85.4791ZM60.0065 81.8607C58.9373 82.1377 58.295 83.229 58.5719 84.2983C58.8489 85.3676 59.9402 86.0099 61.0095 85.7329L60.0065 81.8607ZM51.2697 88.5323C52.3224 88.1978 52.9046 87.0732 52.5701 86.0206C52.2356 84.9679 51.111 84.3857 50.0583 84.7202L51.2697 88.5323ZM49.068 85.0381C48.0173 85.3789 47.4418 86.5069 47.7826 87.5575C48.1233 88.6082 49.2513 89.1838 50.302 88.843L49.068 85.0381ZM40.7877 92.2656C41.8138 91.8568 42.3142 90.6935 41.9053 89.6674C41.4965 88.6413 40.3332 88.1409 39.3071 88.5497L40.7877 92.2656ZM38.3497 88.9352C37.3265 89.3515 36.8346 90.5184 37.2509 91.5415C37.6672 92.5646 38.8341 93.0565 39.8572 92.6402L38.3497 88.9352ZM30.69 96.8053C31.6748 96.3051 32.0676 95.1012 31.5673 94.1164C31.067 93.1316 29.8632 92.7388 28.8784 93.2391L30.69 96.8053ZM27.9401 93.7215C26.9603 94.2313 26.5792 95.4389 27.089 96.4188C27.5989 97.3987 28.8065 97.7797 29.7864 97.2699L27.9401 93.7215ZM21.1781 102.359C22.0933 101.74 22.3337 100.497 21.7152 99.5817C21.0967 98.6665 19.8534 98.4261 18.9383 99.0446L21.1781 102.359ZM18.0693 99.6406C17.1628 100.272 16.9395 101.518 17.5705 102.425C18.2016 103.331 19.4481 103.555 20.3546 102.923L18.0693 99.6406ZM12.7229 109.198C13.5078 108.421 13.5141 107.155 12.7369 106.37C11.9598 105.585 10.6935 105.579 9.90855 106.356L12.7229 109.198ZM9.14754 107.126C8.37992 107.92 8.40151 109.186 9.19576 109.954C9.99001 110.722 11.2562 110.7 12.0238 109.906L9.14754 107.126ZM6.27585 117.649C6.79148 116.672 6.41761 115.462 5.44078 114.946C4.46395 114.431 3.25407 114.805 2.73844 115.782L6.27585 117.649ZM2.24789 116.752C1.76743 117.747 2.18422 118.943 3.17882 119.423C4.17342 119.903 5.3692 119.487 5.84966 118.492L2.24789 116.752ZM3.58563 127.532C3.61108 126.428 2.73651 125.512 1.63223 125.487C0.527955 125.461 -0.387863 126.336 -0.413307 127.44L3.58563 127.532ZM256.42 128C256.42 127.813 256.418 127.627 256.413 127.44L252.414 127.532C252.418 127.688 252.42 127.844 252.42 128L256.42 128ZM253.752 116.752C253.595 116.427 253.432 116.104 253.262 115.782L249.724 117.649C249.872 117.929 250.014 118.21 250.15 118.492L253.752 116.752ZM246.852 107.126C246.603 106.868 246.349 106.611 246.091 106.356L243.277 109.198C243.515 109.433 243.748 109.669 243.976 109.906L246.852 107.126ZM237.931 99.6406C237.644 99.441 237.354 99.2423 237.062 99.0446L234.822 102.359C235.099 102.546 235.374 102.734 235.645 102.923L237.931 99.6406ZM228.06 93.7214C227.749 93.5598 227.437 93.399 227.122 93.2391L225.31 96.8053C225.613 96.9594 225.915 97.1143 226.214 97.2698L228.06 93.7214ZM217.65 88.9352C217.333 88.806 217.014 88.6775 216.693 88.5497L215.212 92.2656C215.524 92.3898 215.834 92.5147 216.143 92.6402L217.65 88.9352ZM206.932 85.0381C206.603 84.9314 206.273 84.8255 205.942 84.7202L204.73 88.5323C205.054 88.6352 205.377 88.7388 205.698 88.843L206.932 85.0381ZM195.993 81.8607C195.658 81.7738 195.321 81.6875 194.983 81.6018L194 85.4791C194.331 85.5631 194.661 85.6477 194.99 85.7329L195.993 81.8607ZM184.912 79.3012C184.572 79.2318 184.232 79.163 183.891 79.0948L183.107 83.0172C183.442 83.0843 183.777 83.1519 184.111 83.2202L184.912 79.3012ZM173.733 77.2872C173.392 77.2336 173.049 77.1806 172.706 77.1282L172.102 81.0823C172.44 81.1339 172.777 81.1861 173.113 81.2388L173.733 77.2872ZM162.485 75.767C162.143 75.728 161.8 75.6895 161.456 75.6516L161.017 79.6274C161.356 79.6648 161.694 79.7027 162.032 79.7413L162.485 75.767ZM151.189 74.704C150.846 74.6784 150.504 74.6535 150.16 74.629L149.876 78.619C150.215 78.6431 150.554 78.6677 150.891 78.6929L151.189 74.704ZM139.86 74.0719C139.518 74.0591 139.175 74.0469 138.833 74.0352L138.697 78.0329C139.035 78.0444 139.373 78.0565 139.71 78.0691L139.86 74.0719ZM128.519 73.8523C128.346 73.852 128.173 73.8519 128 73.8519L128 77.8519C128.171 77.8519 128.342 77.852 128.512 77.8523L128.519 73.8523ZM128 73.8519C127.827 73.8519 127.654 73.852 127.481 73.8523L127.488 77.8523C127.658 77.852 127.829 77.8519 128 77.8519L128 73.8519ZM117.167 74.0352C116.825 74.0469 116.482 74.0591 116.14 74.0719L116.29 78.0691C116.627 78.0565 116.965 78.0444 117.303 78.0329L117.167 74.0352ZM105.84 74.629C105.496 74.6535 105.154 74.6785 104.811 74.704L105.109 78.6929C105.446 78.6677 105.785 78.6431 106.124 78.619L105.84 74.629ZM94.5436 75.6516C94.2001 75.6895 93.857 75.728 93.5146 75.767L93.9681 79.7413C94.3056 79.7028 94.6438 79.6648 94.9825 79.6274L94.5436 75.6516ZM83.2938 77.1282C82.9508 77.1806 82.6085 77.2336 82.2669 77.2872L82.8869 81.2389C83.2232 81.1861 83.5602 81.1339 83.898 81.0823L83.2938 77.1282ZM72.1091 79.0948C71.7679 79.163 71.4275 79.2318 71.088 79.3012L71.8892 83.2202C72.2229 83.1519 72.5575 83.0843 72.893 83.0173L72.1091 79.0948ZM61.0165 81.6018C60.6788 81.6875 60.3422 81.7738 60.0065 81.8607L61.0095 85.7329C61.3386 85.6477 61.6687 85.5631 62 85.4791L61.0165 81.6018ZM50.0583 84.7202C49.7269 84.8255 49.3968 84.9315 49.068 85.0381L50.302 88.843C50.6232 88.7388 50.9458 88.6353 51.2697 88.5323L50.0583 84.7202ZM39.3071 88.5497C38.9863 88.6775 38.6672 88.806 38.3497 88.9352L39.8572 92.6402C40.1657 92.5147 40.4759 92.3898 40.7877 92.2656L39.3071 88.5497ZM28.8784 93.2391C28.5635 93.3991 28.2507 93.5598 27.9401 93.7215L29.7864 97.2699C30.0853 97.1143 30.3866 96.9595 30.69 96.8053L28.8784 93.2391ZM18.9383 99.0446C18.6457 99.2423 18.3561 99.441 18.0693 99.6406L20.3546 102.923C20.6261 102.735 20.9006 102.546 21.1781 102.359L18.9383 99.0446ZM9.90855 106.356C9.65052 106.611 9.39684 106.868 9.14754 107.126L12.0238 109.906C12.2524 109.669 12.4854 109.434 12.7229 109.198L9.90855 106.356ZM2.73844 115.782C2.56844 116.104 2.40489 116.427 2.24789 116.752L5.84966 118.492C5.98566 118.211 6.12773 117.929 6.27585 117.649L2.73844 115.782ZM-0.413307 127.44C-0.417602 127.627 -0.419754 127.813 -0.419754 128L3.58025 128C3.58025 127.844 3.58204 127.688 3.58563 127.532L-0.413307 127.44Z" fill="#0D0C0C" fill-opacity="0.37"/>
<path d="M128 254C122.984 254 117.888 250.952 112.963 244.703C108.056 238.477 103.549 229.342 99.7275 217.877C92.0909 194.968 87.3333 163.191 87.3333 128C87.3333 92.8089 92.091 61.0324 99.7275 38.1228C103.549 26.6575 108.056 17.5235 112.963 11.2968C117.888 5.04761 122.984 2 128 2C133.016 2 138.112 5.04761 143.037 11.2968C147.944 17.5235 152.451 26.6575 156.273 38.1228C163.909 61.0324 168.667 92.8089 168.667 128C168.667 163.191 163.909 194.968 156.273 217.877C152.451 229.342 147.944 238.477 143.037 244.703C138.112 250.952 133.016 254 128 254Z" stroke="black" stroke-width="4"/>
<path d="M128 254C103.05 254 80.2885 240.12 63.6898 217.332C47.0925 194.546 36.7655 162.969 36.7655 128C36.7655 93.0313 47.0925 61.4541 63.6898 38.6679C80.2885 15.8798 103.05 1.99999 128 2C152.95 2 175.712 15.8798 192.31 38.6679C208.908 61.4541 219.235 93.0313 219.235 128C219.235 162.969 208.908 194.546 192.31 217.332C175.712 240.12 152.95 254 128 254Z" stroke="black" stroke-width="4"/>
<line x1="128.42" y1="8.74228e-08" x2="128.42" y2="256" stroke="black" stroke-width="4"/>
</g>
<defs>
<clipPath id="clip0_1:2">
<rect width="256" height="256" fill="white"/>
</clipPath>
</defs>
</svg>
