<svg width="64" height="64" viewBox="0 0 64 64" fill="none" xmlns="http://www.w3.org/2000/svg">
<path fill-rule="evenodd" clip-rule="evenodd" d="M30.2322 2.23223C31.2085 1.25592 32.7915 1.25592 33.7678 2.23223L49.6777 18.1421C50.654 19.1184 50.654 20.7014 49.6777 21.6777C48.7014 22.654 47.1185 22.654 46.1421 21.6777L34.5 10.0355V44C34.5 45.3807 33.3807 46.5 32 46.5C30.6193 46.5 29.5 45.3807 29.5 44V10.0355L17.8579 21.6777C16.8816 22.654 15.2986 22.654 14.3223 21.6777C13.346 20.7014 13.346 19.1184 14.3223 18.1421L30.2322 2.23223Z" fill="#7381FF"/>
<path d="M5 53C5 51.3431 6.34315 50 8 50H57C58.6569 50 60 51.3431 60 53V58C60 59.6569 58.6569 61 57 61H8C6.34315 61 5 59.6569 5 58V53Z" fill="#7381FF"/>
</svg>
